<svg width="12" height="10" viewBox="0 0 12 10" fill="none" xmlns="http://www.w3.org/2000/svg">
<g id="star (1) 4" clip-path="url(#clip0_71_163)">
<path id="Vector" d="M11.5369 3.83573C11.465 3.63325 11.2689 3.48989 11.0377 3.47074L7.88486 3.20866L6.63884 0.537725C6.54684 0.341494 6.33752 0.214844 6.10453 0.214844C5.87155 0.214844 5.66214 0.341494 5.57073 0.537725L4.32471 3.20866L1.17137 3.47074C0.940213 3.49027 0.744473 3.63363 0.672143 3.83573C0.60023 4.03822 0.666643 4.26032 0.841468 4.4007L3.22476 6.3141L2.52205 9.14786C2.47064 9.35622 2.55896 9.57168 2.74779 9.69665C2.84928 9.76417 2.96853 9.79789 3.08819 9.79789C3.19102 9.79789 3.29393 9.77287 3.38584 9.72251L6.10453 8.23415L8.82273 9.72251C9.02214 9.83161 9.27287 9.82162 9.46128 9.69665C9.6501 9.57168 9.73843 9.35622 9.68702 9.14786L8.9843 6.3141L11.3676 4.4007C11.5423 4.26032 11.6088 4.03868 11.5369 3.83573V3.83573Z" fill="#F5C34B"/>
</g>
<defs>
<clipPath id="clip0_71_163">
<rect width="10.9219" height="10" fill="white" transform="translate(0.643555)"/>
</clipPath>
</defs>
</svg>
